<svg width="200" height="120" viewBox="0 0 200 120" xmlns="http://www.w3.org/2000/svg">
  <defs>
    <linearGradient id="canopyGradient" x1="0%" y1="0%" x2="100%" y2="0%">
      <stop offset="0%" style="stop-color:#20B2AA;stop-opacity:1" />
      <stop offset="100%" style="stop-color:#008B8B;stop-opacity:1" />
    </linearGradient>
  </defs>
  
  <!-- Tree trunk and branches -->
  <path d="M100 100 L100 70 L85 60 L100 50 L115 60 L100 70 L100 80 L90 75 L100 70 L110 75 L100 80 L100 90 L95 85 L100 80 L105 85 L100 90 L100 100" 
        stroke="#008B8B" stroke-width="3" fill="none"/>
  
  <!-- Circuit nodes/leaves -->
  <circle cx="85" cy="60" r="4" fill="#20B2AA"/>
  <circle cx="115" cy="60" r="4" fill="#20B2AA"/>
  <circle cx="90" cy="75" r="3" fill="#20B2AA"/>
  <circle cx="110" cy="75" r="3" fill="#20B2AA"/>
  <circle cx="95" cy="85" r="3" fill="#20B2AA"/>
  <circle cx="105" cy="85" r="3" fill="#20B2AA"/>
  
  <!-- Root nodes -->
  <circle cx="95" cy="100" r="3" fill="#20B2AA"/>
  <circle cx="105" cy="100" r="3" fill="#20B2AA"/>
  
  <!-- Canopy outline -->
  <path d="M60 40 Q100 20 140 40" 
        stroke="url(#canopyGradient)" stroke-width="4" fill="none"/>
  
  <!-- Company name -->
  <text x="100" y="115" text-anchor="middle" font-family="Arial, sans-serif" font-size="12" font-weight="bold" fill="#000000">
    TINY TREE
  </text>
  <text x="100" y="130" text-anchor="middle" font-family="Arial, sans-serif" font-size="10" fill="#000000">
    SOLUTIONS
  </text>
</svg> 